<!--
  ~ Copyright {2017} {Aashrey Kamal Sharma}
  ~
  ~    Licensed under the Apache License, Version 2.0 (the "License");
  ~    you may not use this file except in compliance with the License.
  ~    You may obtain a copy of the License at
  ~
  ~        http://www.apache.org/licenses/LICENSE-2.0
  ~
  ~    Unless required by applicable law or agreed to in writing, software
  ~    distributed under the License is distributed on an "AS IS" BASIS,
  ~    WITHOUT WARRANTIES OR CONDITIONS OF ANY KIND, either express or implied.
  ~    See the License for the specific language governing permissions and
  ~    limitations under the License.
  -->

<svg version="1.1" xmlns="http://www.w3.org/2000/svg" xmlns:xlink="http://www.w3.org/1999/xlink" width="48" height="48"><defs><linearGradient x1="11.67152" y1="11.67152" x2="36.77462" y2="36.77462" gradientUnits="userSpaceOnUse" id="color-1"><stop offset="1" stop-color="#000000" stop-opacity="0"></stop><stop offset="1" stop-color="#000000" stop-opacity="0"></stop></linearGradient><filter id="dropshadow-base"><feColorMatrix type="matrix" values="0 0 0 0 0  0 0 0 0 0  0 0 0 0 0  0 0 0 .8 0"></feColorMatrix> <feOffset dx="0" dy="1"></feOffset> <feGaussianBlur stdDeviation="1"></feGaussianBlur> <feComposite in="SourceGraphic"></feComposite></filter><filter id="dropshadow-banner" x="-10%" y="-10%" width="120%" height="130%"><feColorMatrix type="matrix" values="0 0 0 0 0  0 0 0 0 0  0 0 0 0 0  0 0 0 .4 0"></feColorMatrix> <feOffset dx="0" dy="1"></feOffset> <feGaussianBlur stdDeviation="0.5"></feGaussianBlur> <feComposite in="SourceGraphic"></feComposite></filter></defs><g fill="none" fill-rule="nonzero" stroke="none" stroke-width="none" stroke-linecap="butt" stroke-linejoin="miter" stroke-miterlimit="10" stroke-dasharray="" stroke-dashoffset="0" font-family="none" font-weight="none" font-size="none" text-anchor="none" style="mix-blend-mode: normal"><path d="M7,43c-1.10457,0 -2,-0.89543 -2,-2v-34c0,-1.10457 0.89543,-2 2,-2h34c1.10457,0 2,0.89543 2,2v34c0,1.10457 -0.89543,2 -2,2z" id="base 1 5" fill="#ffffff" stroke-width="1"></path><path d="M22.76715,12.11765h-8.1838c-1.3623,0 -2.4657,1.1034 -2.4657,2.4657v8.1838h2.01956v-8.62994h8.62994zM14.58335,23.21329h-2.4657l-0.44613,-0.44613v-8.62994c0,-1.3623 1.1034,-2.4657 2.4657,-2.4657h8.62994l0.44613,0.44613v2.4657h-8.62994zM31.39709,31.39709l0.44613,0.44613h-14.79418l-0.44613,-0.44613l4.93139,-6.16424l0.44613,0.44613l3.25844,4.07031l2.45967,-3.28359l0.44613,0.44613l-2.50268,3.34102l-0.44613,-0.44613l-3.2599,-4.07214l-4.53001,5.66251zM28.7611,18.28189c-1.02326,0 -1.84927,0.82601 -1.84927,1.84927c0,0.39743 0.1246,0.7651 0.33697,1.06617c0.30108,0.21236 0.66875,0.33697 1.06617,0.33697c1.02326,0 1.84927,-0.82601 1.84927,-1.84927c0,-0.39743 -0.1246,-0.7651 -0.33697,-1.06617c-0.30108,-0.21236 -0.66875,-0.33697 -1.06617,-0.33697zM28.7611,21.98044c-0.51163,0 -0.97395,-0.2065 -1.30836,-0.54091l-0.44613,-0.44613c-0.33441,-0.33441 -0.54091,-0.79673 -0.54091,-1.30836c0,-1.02326 0.82601,-1.84927 1.84927,-1.84927c0.51163,0 0.97395,0.2065 1.30836,0.54091l0.44613,0.44613c0.33441,0.33441 0.54091,0.79673 0.54091,1.30836c0,1.02326 -0.82601,1.84927 -1.84927,1.84927zM25.67898,14.13721h8.1838l0.44613,0.44613v8.1838h2.01956v-8.62994c0,-0.56737 -0.19139,-1.08984 -0.51317,-1.50639c-0.41655,-0.32178 -0.93902,-0.51317 -1.50639,-0.51317h-8.62994zM36.05263,12.83964c0.44614,0.44614 0.72199,1.06256 0.72199,1.74371v8.62994h-2.4657l-0.44613,-0.44613l0,-8.1838h-8.1838l-0.44613,-0.44613v-2.4657h8.62994c0.68115,0 1.29757,0.27585 1.74371,0.72199zM25.67898,36.32848h8.1838c1.3623,0 2.4657,-1.1034 2.4657,-2.4657v-8.1838l-2.01956,0v8.62994h-8.62994zM33.86279,25.23285h2.4657l0.44613,0.44613v8.62994c0,1.3623 -1.1034,2.4657 -2.4657,2.4657h-8.62994l-0.44613,-0.44613v-2.4657h8.62994zM12.11765,34.30892c0,0.56737 0.19139,1.08984 0.51317,1.50639c0.41655,0.32178 0.93902,0.51317 1.50639,0.51317h8.62994v-2.01956h-8.1838l-0.44613,-0.44613l0,-8.1838h-2.01956zM14.58335,33.86279h8.1838l0.44613,0.44613v2.4657h-8.62994c-0.68115,0 -1.29757,-0.27585 -1.74371,-0.72199c0,0 0,0 0,0l-0.44613,-0.44613c-0.44614,-0.44614 -0.72199,-1.06256 -0.72199,-1.74371v-8.62994h2.4657l0.44613,0.44613z" fill="url(#color-1)" stroke-width="1"></path><path d="M14.13721,14.13721h8.62994v-2.4657h-8.62994c-1.3623,0 -2.4657,1.1034 -2.4657,2.4657v8.62994h2.4657zM21.5343,25.23285l-4.93139,6.16424h14.79418l-3.69854,-4.93139l-2.50268,3.34102zM30.16424,19.68503c0,-1.02326 -0.82601,-1.84927 -1.84927,-1.84927c-1.02326,0 -1.84927,0.82601 -1.84927,1.84927c0,1.02326 0.82601,1.84927 1.84927,1.84927c1.02326,0 1.84927,-0.82601 1.84927,-1.84927zM33.86279,11.67152h-8.62994v2.4657h8.62994v8.62994h2.4657v-8.62994c0,-1.3623 -1.1034,-2.4657 -2.4657,-2.4657zM33.86279,33.86279h-8.62994v2.4657h8.62994c1.3623,0 2.4657,-1.1034 2.4657,-2.4657v-8.62994h-2.4657zM14.13721,25.23285h-2.4657v8.62994c0,1.3623 1.1034,2.4657 2.4657,2.4657h8.62994v-2.4657h-8.62994z" fill="none" stroke-width="0"></path><path d="M14.13721,22.76715h-2.4657v-8.62994c0,-1.3623 1.1034,-2.4657 2.4657,-2.4657h8.62994v2.4657h-8.62994zM25.19586,29.80671l2.50268,-3.34102l3.69854,4.93139h-14.79418l4.93139,-6.16424zM28.31497,21.5343c-1.02326,0 -1.84927,-0.82601 -1.84927,-1.84927c0,-1.02326 0.82601,-1.84927 1.84927,-1.84927c1.02326,0 1.84927,0.82601 1.84927,1.84927c0,1.02326 -0.82601,1.84927 -1.84927,1.84927zM36.32848,14.13721v8.62994h-2.4657v-8.62994h-8.62994v-2.4657h8.62994c1.3623,0 2.4657,1.1034 2.4657,2.4657zM33.86279,25.23285h2.4657v8.62994c0,1.3623 -1.1034,2.4657 -2.4657,2.4657h-8.62994v-2.4657h8.62994zM14.13721,33.86279h8.62994v2.4657h-8.62994c-1.3623,0 -2.4657,-1.1034 -2.4657,-2.4657v-8.62994h2.4657z" fill="#000000" stroke-width="0"></path><path d="M2,24c0,-12.15026 9.84974,-22 22,-22c12.15026,0 22,9.84974 22,22c0,12.15026 -9.84974,22 -22,22c-12.15026,0 -22,-9.84974 -22,-22z" id="base 1 1 1" fill="none" stroke-width="1"></path><g fill="#000000" stroke-width="1" font-family="Roboto, sans-serif" font-weight="normal" font-size="14" text-anchor="start"></g><rect x="2" y="2" width="44" height="22" fill="none" stroke-width="1"></rect><path d="M2,24v-22h44v22z" fill="none" stroke-width="1"></path><path d="M2,24v-22h44v22z" fill="none" stroke-width="1"></path><path d="M2,24v-22h44v22z" fill="none" stroke-width="1"></path><path d="M2,24v-22h44v22z" fill="none" stroke-width="1"></path></g></svg>